HIERARCHY
ROOT joint_0
{
	OFFSET 0.000000 0.000000 0.000000
	CHANNELS 6 Xposition Yposition Zposition Zrotation Yrotation Xrotation 
	JOINT joint_1
	{
		OFFSET 6.590088 -1.122192 114.019043
		CHANNELS 3 Zrotation Yrotation Xrotation
		JOINT joint_2
		{
			OFFSET -5.956055 -0.820435 104.151001
			CHANNELS 3 Zrotation Yrotation Xrotation
			JOINT joint_3
			{
				OFFSET -7.343506 -1.103027 103.942993
				CHANNELS 3 Zrotation Yrotation Xrotation
				JOINT joint_4
				{
					OFFSET 3.109131 -2.857056 147.715942
					CHANNELS 3 Zrotation Yrotation Xrotation
					JOINT joint_5
					{
						OFFSET 28.592285 -2.852295 87.703979
						CHANNELS 3 Zrotation Yrotation Xrotation
						End Site
						{
							OFFSET 0.000000 0.000000 0.000000
						}
					}
				}
				JOINT joint_6
				{
					OFFSET -0.332520 -33.687378 82.401978
					CHANNELS 3 Zrotation Yrotation Xrotation
					JOINT joint_7
					{
						OFFSET -7.397461 -168.719177 -22.750977
						CHANNELS 3 Zrotation Yrotation Xrotation
						JOINT joint_8
						{
							OFFSET 17.065918 -24.903137 -272.721069
							CHANNELS 3 Zrotation Yrotation Xrotation
							JOINT joint_9
							{
								OFFSET 33.311279 -37.031616 -278.192993
								CHANNELS 3 Zrotation Yrotation Xrotation
								End Site
								{
									OFFSET 0.000000 0.000000 0.000000
								}
							}
						}
					}
				}
				JOINT joint_10
				{
					OFFSET 3.914307 30.461670 83.552979
					CHANNELS 3 Zrotation Yrotation Xrotation
					JOINT joint_11
					{
						OFFSET 15.543701 166.845459 -30.963013
						CHANNELS 3 Zrotation Yrotation Xrotation
						JOINT joint_12
						{
							OFFSET 35.734863 35.017700 -269.786011
							CHANNELS 3 Zrotation Yrotation Xrotation
							JOINT joint_13
							{
								OFFSET 70.506592 13.977783 -273.320007
								CHANNELS 3 Zrotation Yrotation Xrotation
								End Site
								{
									OFFSET 0.000000 0.000000 0.000000
								}
							}
						}
					}
				}
			}
		}
	}
	JOINT joint_14
	{
		OFFSET -0.314697 -95.093994 -116.004028
		CHANNELS 3 Zrotation Yrotation Xrotation
		JOINT joint_15
		{
			OFFSET -22.490723 2.017883 -455.510986
			CHANNELS 3 Zrotation Yrotation Xrotation
			JOINT joint_16
			{
				OFFSET -46.427490 7.144104 -496.360985
				CHANNELS 3 Zrotation Yrotation Xrotation
				JOINT joint_17
				{
					OFFSET 209.055420 -37.122803 -85.191002
					CHANNELS 3 Zrotation Yrotation Xrotation
					End Site
					{
						OFFSET 0.000000 0.000000 0.000000
					}
				}
			}
		}
	}
	JOINT joint_18
	{
		OFFSET 5.652832 94.642578 -116.244019
		CHANNELS 3 Zrotation Yrotation Xrotation
		JOINT joint_19
		{
			OFFSET -12.379883 -7.332642 -455.843994
			CHANNELS 3 Zrotation Yrotation Xrotation
			JOINT joint_20
			{
				OFFSET -45.227051 -8.172241 -496.457985
				CHANNELS 3 Zrotation Yrotation Xrotation
				JOINT joint_21
				{
					OFFSET 210.522949 -11.530396 -88.809004
					CHANNELS 3 Zrotation Yrotation Xrotation
					End Site
					{
						OFFSET 0.000000 0.000000 0.000000
					}
				}
			}
		}
	}
}
MOTION
Frames: 16
Frame Time: 0.016667
-2135.749023 881.498779 1125.881958 2.897740 8.283158 5.243398 3.946581 9.885426 -4.430391 1.702475 -1.997204 0.901112 0.956544 1.741095 -0.862476 3.018515 -11.409238 -7.096810 0.000000 0.000000 0.000000 -1.058701 -2.715349 -3.662522 -11.819918 0.390696 -15.123209 179.104873 -73.678721 -147.409610 0.000000 0.000000 0.000000 9.247542 -6.569950 0.929842 10.654776 -6.691469 13.065361 172.425649 -76.595140 158.474742 0.000000 0.000000 0.000000 0.545041 -42.961787 -17.372934 5.382612 58.715043 3.530576 7.935777 -2.173161 2.530165 0.000000 0.000000 0.000000 -1.910218 -35.755545 2.315264 0.865362 39.595830 0.808006 3.624440 -4.027437 1.105594 0.000000 0.000000 0.000000 
-2123.346680 876.900574 1126.156006 2.583575 8.073932 5.759992 3.844805 10.067489 -4.532750 1.935166 -2.044324 0.865577 1.272099 1.763781 -0.858974 3.130761 -11.271278 -7.358101 0.000000 0.000000 0.000000 -1.211394 -3.149544 -3.601629 -12.927161 0.268157 -16.415523 178.264330 -71.463057 -144.488823 0.000000 0.000000 0.000000 9.175218 -5.703700 0.665896 10.765946 -6.364344 13.566742 172.760932 -75.482585 160.369681 0.000000 0.000000 0.000000 1.194158 -43.379957 -17.743273 5.366484 53.794176 2.366091 7.257510 -2.206218 2.282361 0.000000 0.000000 0.000000 -1.204195 -35.600286 2.122707 0.904014 40.923080 0.422078 3.629004 -3.553660 1.120078 0.000000 0.000000 0.000000 
-2110.885010 871.365906 1125.947021 2.599743 7.712694 6.130727 3.547914 10.195746 -4.482180 2.074424 -2.058678 0.820053 1.527938 1.782353 -0.831728 3.186359 -11.020570 -7.506097 0.000000 0.000000 0.000000 -1.327477 -3.530022 -3.568182 -13.880121 0.162108 -17.379730 177.546531 -69.609208 -141.650858 0.000000 0.000000 0.000000 9.096669 -4.939903 0.670383 10.824243 -6.062352 13.828687 173.069793 -75.052033 161.930639 0.000000 0.000000 0.000000 2.014201 -42.975965 -18.070035 5.481662 48.329965 1.614724 7.385422 -1.697019 2.411295 0.000000 0.000000 0.000000 -0.613189 -35.500476 2.101147 0.795437 42.479603 0.027837 3.571482 -2.954094 1.115255 0.000000 0.000000 0.000000 
-2098.054443 864.708313 1124.847046 2.865474 7.264489 6.214410 3.034291 10.066602 -4.184677 2.162564 -1.920999 0.754488 1.778567 1.792209 -0.788347 3.179249 -10.607528 -7.514534 0.000000 0.000000 0.000000 -1.411879 -3.764379 -3.621261 -14.573873 0.124642 -17.796245 177.074037 -68.269401 -138.814942 0.000000 0.000000 0.000000 9.168566 -4.378730 1.165075 10.749335 -5.745407 13.612073 173.246160 -75.487530 162.932167 0.000000 0.000000 0.000000 3.431182 -41.507215 -18.383012 6.117341 41.517138 1.621801 8.574800 -0.825654 2.987370 0.000000 0.000000 0.000000 -0.072761 -35.634816 2.423074 0.482102 44.477426 -0.396202 3.409821 -2.250462 1.073072 0.000000 0.000000 0.000000 
-2085.165771 857.114319 1123.262939 3.570177 6.540767 6.159541 2.301271 10.114950 -3.719916 2.110367 -1.855226 0.663946 1.909921 1.783073 -0.714815 3.116755 -10.082441 -7.400914 0.000000 0.000000 0.000000 -1.455250 -3.888818 -3.711883 -15.077212 0.137892 -17.863395 176.784221 -67.422548 -136.051616 0.000000 0.000000 0.000000 9.243860 -3.925410 1.953393 10.604472 -5.432939 13.143993 173.371990 -76.526308 163.615012 0.000000 0.000000 0.000000 5.097766 -38.876183 -18.635822 7.224539 33.767335 1.623054 9.968105 0.686591 3.773754 0.000000 0.000000 0.000000 0.291391 -35.733268 2.863813 -0.029013 46.670436 -0.770802 3.199451 -1.356450 1.018102 0.000000 0.000000 0.000000 
-2072.629639 849.400879 1121.332031 4.727153 5.475784 6.140639 1.478893 10.572055 -3.288816 1.851922 -2.009248 0.606406 1.811705 1.778351 -0.616125 3.028299 -9.522886 -7.221760 0.000000 0.000000 0.000000 -1.425471 -3.847824 -3.783200 -15.302859 0.197283 -17.741588 176.675366 -67.110988 -134.078380 0.000000 0.000000 0.000000 9.273707 -3.527635 2.561314 10.471896 -5.229473 12.883378 173.525558 -77.776760 164.206999 0.000000 0.000000 0.000000 6.070572 -36.307362 -18.803666 7.968174 28.783530 1.264072 10.643776 1.871661 4.241275 0.000000 0.000000 0.000000 0.262283 -35.617766 3.200009 -0.642415 48.802710 -1.034722 3.043305 -0.218629 0.992226 0.000000 0.000000 0.000000 
-2060.525635 841.596069 1118.626953 6.024474 4.406171 6.028593 0.815747 10.720091 -2.768776 1.470143 -2.033609 0.529787 1.526845 1.795813 -0.498890 2.910542 -8.943109 -6.982783 0.000000 0.000000 0.000000 -1.264434 -3.530937 -3.823126 -15.097952 0.360609 -17.427449 176.781831 -67.488540 -133.401516 0.000000 0.000000 0.000000 9.212874 -3.168422 2.804208 10.399050 -5.184949 13.090181 173.775831 -79.172947 164.768538 0.000000 0.000000 0.000000 5.977184 -35.444632 -18.678663 7.719052 29.827836 1.051568 10.803660 0.803154 4.093307 0.000000 0.000000 0.000000 -0.168326 -35.627390 3.657183 -1.278546 50.930897 -1.228223 3.009805 1.147353 1.021101 0.000000 0.000000 0.000000 
-2048.774170 833.670898 1115.574951 7.382900 3.341404 5.782014 0.239879 10.633627 -2.146909 1.027622 -1.943475 0.425920 1.142577 1.803544 -0.370762 2.766472 -8.324253 -6.688739 0.000000 0.000000 0.000000 -1.028620 -3.021595 -3.826115 -14.562957 0.590968 -16.957849 177.065343 -68.471021 -133.579005 0.000000 0.000000 0.000000 9.113895 -2.866912 2.862243 10.319430 -5.227985 13.505244 174.049401 -80.785500 165.251330 0.000000 0.000000 0.000000 5.320684 -35.413636 -18.368888 6.888519 34.178631 1.117937 10.864283 -1.574326 3.662699 0.000000 0.000000 0.000000 -0.823601 -35.729820 4.273744 -1.949544 53.035520 -1.421595 3.060554 2.715596 1.085942 0.000000 0.000000 0.000000 
-2037.553223 826.358154 1113.589966 8.485139 2.295270 5.498107 -0.296660 10.663474 -1.591509 0.683464 -1.929611 0.336848 0.864629 1.811654 -0.249410 2.636914 -7.714092 -6.417372 0.000000 0.000000 0.000000 -0.870888 -2.572390 -3.714727 -13.977440 0.742970 -16.600264 177.401947 -69.722671 -133.923503 0.000000 0.000000 0.000000 9.062764 -2.627666 2.768862 10.165103 -5.300944 13.828785 174.217417 -82.426113 165.717763 0.000000 0.000000 0.000000 4.798675 -34.858526 -18.087174 6.059146 37.496435 1.366377 10.772779 -3.332765 3.294664 0.000000 0.000000 0.000000 -1.316501 -35.696290 4.959380 -2.538751 54.847057 -1.729926 3.178380 4.387393 1.170695 0.000000 0.000000 0.000000 
-2026.835327 819.727905 1113.286011 9.033324 1.386198 5.127185 -0.760876 10.713290 -1.030589 0.573517 -1.974823 0.221423 0.862225 1.884090 -0.128131 2.539069 -7.096544 -6.189503 0.000000 0.000000 0.000000 -0.876585 -2.293192 -3.374771 -13.395185 0.735171 -16.532448 177.782990 -71.194163 -134.318163 0.000000 0.000000 0.000000 9.128362 -2.493623 2.397279 9.925881 -5.458646 14.068138 174.226642 -84.058462 166.159761 0.000000 0.000000 0.000000 4.851342 -33.439561 -17.739570 5.447638 38.346238 1.888706 10.402420 -4.212666 2.997023 0.000000 0.000000 0.000000 -1.365392 -35.617744 5.917635 -2.965259 56.440608 -2.264723 3.452621 6.421369 1.308164 0.000000 0.000000 0.000000 
-2016.647949 813.709045 1114.050049 9.224217 0.570545 4.713591 -1.133501 10.743354 -0.457095 0.596275 -2.042503 0.078488 1.006112 1.987885 -0.011380 2.455774 -6.491184 -5.991302 0.000000 0.000000 0.000000 -0.968290 -2.085716 -2.913695 -12.757792 0.660563 -16.597086 178.227439 -72.905163 -134.915325 0.000000 0.000000 0.000000 9.247497 -2.431064 1.856669 9.627530 -5.648506 14.230109 174.139845 -85.703542 166.596629 0.000000 0.000000 0.000000 5.125965 -31.696912 -17.310680 4.913675 38.332956 2.614925 9.868213 -4.792611 2.699232 0.000000 0.000000 0.000000 -1.189655 -35.482830 7.022866 -3.264279 57.775373 -2.901068 3.857317 8.530468 1.478442 0.000000 0.000000 0.000000 
-2007.247803 808.819275 1115.458008 9.200459 -0.126412 4.432907 -1.333852 10.706007 -0.046401 0.652213 -2.074705 -0.023318 1.136211 2.031020 0.061824 2.381902 -6.012470 -5.858302 0.000000 0.000000 0.000000 -1.042791 -1.890813 -2.568695 -12.173367 0.631253 -16.574361 178.635049 -74.683438 -135.396918 0.000000 0.000000 0.000000 9.294832 -2.332976 1.500996 9.280369 -5.679607 14.038258 174.015652 -87.243052 167.134185 0.000000 0.000000 0.000000 5.398896 -30.119742 -17.023913 4.566199 38.125571 3.371908 9.484591 -5.215311 2.485939 0.000000 0.000000 0.000000 -1.011426 -35.138027 7.861761 -3.432838 58.512585 -3.474459 4.085470 9.605595 1.557340 0.000000 0.000000 0.000000 
-1998.831787 805.402466 1117.385986 8.948054 -0.657100 4.397267 -1.290668 10.523409 0.083978 0.735248 -2.028182 -0.041461 1.215108 1.969917 0.060063 2.319058 -5.723912 -5.813121 0.000000 0.000000 0.000000 -1.066806 -1.695931 -2.451106 -11.685579 0.684541 -16.328871 178.959889 -76.540227 -135.586917 0.000000 0.000000 0.000000 9.175403 -2.147095 1.496808 8.875600 -5.466852 13.295229 173.879613 -88.607470 167.899814 0.000000 0.000000 0.000000 5.671090 -28.954375 -17.132778 4.469504 38.025598 4.228353 9.414910 -5.539838 2.404674 0.000000 0.000000 0.000000 -0.841942 -34.552505 8.233615 -3.433509 58.715495 -3.945318 4.066584 8.884953 1.510713 0.000000 0.000000 0.000000 
-1991.203979 803.114685 1119.958008 8.483613 -1.044368 4.512599 -1.077672 10.218706 0.042096 0.851828 -1.931232 -0.013609 1.283876 1.865407 0.015949 2.269363 -5.569514 -5.826244 0.000000 0.000000 0.000000 -1.066221 -1.514714 -2.437362 -11.244839 0.768564 -15.997538 179.245539 -78.497899 -135.674224 0.000000 0.000000 0.000000 8.967147 -1.928574 1.648675 8.424741 -5.124402 12.225451 173.729848 -89.859094 168.782918 0.000000 0.000000 0.000000 5.966229 -27.970295 -17.451327 4.539052 37.768072 5.123254 9.481796 -5.734629 2.398457 0.000000 0.000000 0.000000 -0.659813 -33.782658 8.316134 -3.298880 58.362535 -4.392935 3.782441 7.099049 1.354565 0.000000 0.000000 0.000000 
-1984.029053 801.448242 1123.119019 7.983064 -1.351435 4.641685 -0.830478 9.855292 -0.029956 0.922151 -1.809150 0.023543 1.292477 1.773737 -0.018044 2.231315 -5.476258 -5.861337 0.000000 0.000000 0.000000 -1.008653 -1.322731 -2.419140 -10.817794 0.858474 -15.755644 179.523723 -80.418981 -135.869586 0.000000 0.000000 0.000000 8.816483 -1.725642 1.773356 7.972141 -4.762290 11.175194 -6.419423 -88.912434 -10.474524 0.000000 0.000000 0.000000 6.131563 -26.946957 -17.588902 4.647757 37.188964 5.713872 9.484597 -5.818651 2.392784 0.000000 0.000000 0.000000 -0.636197 -32.808106 8.257009 -3.144384 56.998836 -4.869366 2.959889 5.295709 1.029113 0.000000 0.000000 0.000000 
-1977.266968 800.222595 1127.095947 7.425129 -1.634090 4.730187 -0.579878 9.570427 -0.067014 0.941763 -1.730370 0.040513 1.257374 1.729711 -0.026816 2.206676 -5.462495 -5.918540 0.000000 0.000000 0.000000 -0.853779 -1.107344 -2.363617 -10.394162 0.954133 -15.647911 179.804841 -82.297446 -136.245829 0.000000 0.000000 0.000000 8.791885 -1.588798 1.775130 7.517226 -4.442813 10.257291 -6.584790 -87.571814 -9.984371 0.000000 0.000000 0.000000 6.101677 -25.749000 -17.311814 4.772755 36.144399 5.771277 9.336945 -5.764087 2.363535 0.000000 0.000000 0.000000 -0.998110 -31.478531 8.187034 -3.193907 54.032604 -5.654151 0.996162 3.969384 0.338106 0.000000 0.000000 0.000000 
